# xmcd CD database file
#
# Track frame offsets:
#	150
#	22476
#	35380
#	53862
#	70587
#	90153
#	103710
#	123446
#	148168
#	173776
#	192730
#	217653
#	228418
#	245777
#
# Disc length: 3530 seconds
#
# Revision: 0
# Processed by: cddbd v1.5.2PL0 Copyright (c) Steve Scherf et al.
# Submitted via: CDex 1.70beta2
#
DISCID=c80dc80e
DTITLE=Full Steam Jazzband - Downstairs
DYEAR=2007
DGENRE=Jazz
TTITLE0=Apex Blues
TTITLE1=Bei Mir Bist Du Scheen
TTITLE2=In The Shade Of The Old Apple Tree
TTITLE3=On The Sunny Side Of The Street
TTITLE4=Avalon
TTITLE5=Petite Fleur
TTITLE6=Just Wishin' You
TTITLE7=Rent Party Blues
TTITLE8=Buddy's Habits
TTITLE9=March Of The Indians
TTITLE10=Snake Rag
TTITLE11=Give Me Your Telephone Number
TTITLE12=Bye Bye Blackbird
TTITLE13=Hey Look Me Over
EXTD=YEAR: 2007
EXTT0=
EXTT1=
EXTT2=
EXTT3=
EXTT4=
EXTT5=
EXTT6=
EXTT7=
EXTT8=
EXTT9=
EXTT10=
EXTT11=
EXTT12=
EXTT13=
PLAYORDER=
